<?xml version="1.0" encoding="UTF-8" standalone="no"?>
<svg
   xmlns:dc="http://purl.org/dc/elements/1.1/"
   xmlns:cc="http://creativecommons.org/ns#"
   xmlns:rdf="http://www.w3.org/1999/02/22-rdf-syntax-ns#"
   xmlns:svg="http://www.w3.org/2000/svg"
   xmlns="http://www.w3.org/2000/svg"
   xmlns:sodipodi="http://sodipodi.sourceforge.net/DTD/sodipodi-0.dtd"
   xmlns:inkscape="http://www.inkscape.org/namespaces/inkscape"
   version="1.1"
   width="250"
   height="100"
   id="svg25"
   viewBox="0 0 250.00001 99.999999"
   sodipodi:docname="_Akcent logo.cdr.svg"
   inkscape:version="1.0.1 (0767f8302a, 2020-10-17)">
  <metadata
     id="metadata29">
    <rdf:RDF>
      <cc:Work
         rdf:about="">
        <dc:format>image/svg+xml</dc:format>
        <dc:type
           rdf:resource="http://purl.org/dc/dcmitype/StillImage" />
        <dc:title></dc:title>
      </cc:Work>
    </rdf:RDF>
  </metadata>
  <sodipodi:namedview
     pagecolor="#ffffff"
     bordercolor="#666666"
     borderopacity="1"
     objecttolerance="10"
     gridtolerance="10"
     guidetolerance="10"
     inkscape:pageopacity="0"
     inkscape:pageshadow="2"
     inkscape:window-width="1920"
     inkscape:window-height="972"
     id="namedview27"
     showgrid="true"
     inkscape:zoom="3.9441263"
     inkscape:cx="135.63123"
     inkscape:cy="53.612585"
     inkscape:window-x="0"
     inkscape:window-y="27"
     inkscape:window-maximized="1"
     inkscape:current-layer="svg25">
    <inkscape:grid
       type="xygrid"
       id="grid31" />
  </sodipodi:namedview>
  <path
     d="m 110.62553,25.295531 h -3.28571 l 0.01,5.604524 H 105.761 v -6.906986 h 4.87437 z m 6.02152,-1.302462 c 0.61176,0 1.14295,0.101943 1.59347,0.305855 0.45066,0.203946 0.79763,0.493394 1.04107,0.868364 0.24336,0.374901 0.36501,0.818955 0.36501,1.332064 0,0.506504 -0.12176,0.94886 -0.36501,1.327129 -0.24344,0.378269 -0.59041,0.667599 -1.04107,0.868254 -0.45052,0.200618 -0.98171,0.300928 -1.59347,0.300928 h -1.39132 v 1.904392 h -1.5985 v -6.906986 z m -0.0889,3.70013 c 0.4802,0 0.84524,-0.1036 1.09528,-0.310812 0.24992,-0.207216 0.37487,-0.501584 0.37487,-0.883035 0,-0.388126 -0.12495,-0.685792 -0.37487,-0.893007 -0.25004,-0.207206 -0.61508,-0.310814 -1.09528,-0.310814 h -1.30251 v 2.397668 z m 10.5208,1.726743 h -3.20677 l -0.61178,1.480113 h -1.6379 l 3.0785,-6.906986 h 1.57879 l 3.0884,6.906986 h -1.67748 z m -0.50325,-1.213562 -1.09518,-2.644408 -1.09528,2.644408 z m 12.93828,1.391214 v 2.733197 h -1.48001 v -1.430736 h -4.87437 v 1.430736 h -1.48011 l 0.01,-2.733197 h 0.2762 c 0.41444,-0.01316 0.70718,-0.315744 0.87825,-0.907816 0.17104,-0.592043 0.27628,-1.437294 0.31573,-2.535849 l 0.0789,-2.16086 h 5.30852 v 5.604525 z m -4.94338,-3.295608 c -0.0329,0.822254 -0.10187,1.511347 -0.20722,2.06716 -0.10518,0.555879 -0.26644,0.965383 -0.4835,1.228448 h 3.08838 v -4.302063 h -2.36811 z m 14.29998,-2.308917 -2.9404,5.466394 c -0.2829,0.526258 -0.62326,0.924233 -1.02126,1.193975 -0.39796,0.269624 -0.83046,0.404534 -1.29753,0.404534 -0.36185,0 -0.73672,-0.07894 -1.12488,-0.236888 l 0.38487,-1.213632 c 0.27621,0.08552 0.50651,0.128351 0.69072,0.128351 0.19724,0 0.37486,-0.04772 0.53281,-0.143168 0.1578,-0.09535 0.30259,-0.244959 0.43412,-0.448916 l 0.0593,-0.07893 -2.72334,-5.071718 h 1.70704 l 1.83526,3.710098 1.89442,-3.710098 z m 5.99182,7.025372 c -0.70382,0 -1.34035,-0.152869 -1.90929,-0.458763 -0.56906,-0.305885 -1.0163,-0.730243 -1.34191,-1.272899 -0.32569,-0.542664 -0.48846,-1.156074 -0.48846,-1.840236 0,-0.684124 0.16277,-1.297533 0.48846,-1.840198 0.32561,-0.542665 0.77285,-0.967013 1.34191,-1.272908 0.56894,-0.305885 1.20873,-0.458753 1.91918,-0.458753 0.59859,0 1.13963,0.10522 1.62313,0.315703 0.48345,0.210505 0.88959,0.513101 1.2186,0.907786 l -1.02627,0.947229 c -0.46699,-0.539367 -1.04587,-0.809108 -1.73659,-0.809108 -0.42758,0 -0.80914,0.09377 -1.1446,0.281229 -0.33543,0.187499 -0.59697,0.448906 -0.78446,0.784463 -0.1874,0.335449 -0.28112,0.717017 -0.28112,1.144557 0,0.427569 0.0939,0.809137 0.28112,1.144586 0.18749,0.335527 0.44903,0.596972 0.78446,0.784472 0.33546,0.18747 0.71702,0.28123 1.1446,0.28123 0.69072,0 1.2696,-0.273041 1.73659,-0.818966 l 1.02627,0.947199 c -0.32901,0.401274 -0.73684,0.707167 -1.22352,0.917634 -0.4868,0.210504 -1.02958,0.315743 -1.6281,0.315743 z m 17.81247,-0.11839 -0.01,-4.134376 -2.03262,3.404252 h -0.71044 l -2.03262,-3.32528 v 4.055404 h -1.49981 v -6.906984 h 1.32216 l 2.58525,4.292175 2.54573,-4.292175 h 1.32221 l 0.01,6.906987 z m 9.93859,-1.480112 h -3.20679 l -0.61173,1.480112 h -1.63796 l 3.07856,-6.906986 h 1.57878 l 3.08836,6.906986 h -1.67745 z m -0.50322,-1.213563 -1.09517,-2.644407 -1.09529,2.644407 z m 8.74484,-4.213311 c 0.61179,0 1.14292,0.101944 1.5935,0.305855 0.45065,0.203946 0.79759,0.493394 1.04107,0.868364 0.24331,0.374901 0.365,0.818956 0.365,1.332065 0,0.506503 -0.12175,0.948859 -0.365,1.327128 -0.24348,0.378269 -0.59042,0.667599 -1.04107,0.868255 -0.45058,0.200617 -0.98171,0.300927 -1.5935,0.300927 h -1.39129 v 1.904392 h -1.5985 v -6.906984 z m -0.0889,3.700131 c 0.48025,0 0.84527,-0.103601 1.09529,-0.310813 0.24992,-0.207216 0.37491,-0.501584 0.37491,-0.883034 0,-0.388127 -0.12499,-0.685792 -0.37491,-0.893008 -0.25002,-0.207206 -0.61504,-0.310814 -1.09529,-0.310814 h -1.30246 v 2.397669 z m 8.86315,0.424359 h -1.10514 v 2.782496 h -1.58864 v -6.906984 h 1.58864 v 2.792425 h 1.14459 l 1.81556,-2.792425 h 1.68734 l -2.25967,3.335088 2.32866,3.571899 h -1.8156 z m 11.75419,1.499741 v 1.282755 h -5.34802 v -6.906984 h 5.21978 v 1.282756 h -3.63113 v 1.499742 h 3.20686 v 1.243314 h -3.20686 v 1.59842 z M 220,25.295527 h -2.21016 v 5.604524 h -1.57879 V 25.29553 h -2.20039 V 23.993067 H 220 Z"
     style="fill:#333333;fill-rule:evenodd;stroke-width:0.378952"
     id="path4" />
  <path
     d="m 121.27202,69.688278 -6.62823,-19.704415 6.53804,-11.858672 h -3.65229 l -8.25149,15.556071 V 38.125191 h -3.51702 v 31.563087 h 3.51702 V 59.272462 l 3.02101,-5.27556 5.27556,15.691376 z m 17.48108,0.450912 c 4.50906,0 7.03406,-2.795616 7.03406,-7.530071 v -4.193393 h -3.33664 v 4.418872 c 0,2.660256 -1.39778,4.103208 -3.60722,4.103208 -2.20945,0 -3.60722,-1.442952 -3.60722,-4.103208 V 44.97887 c 0,-2.660352 1.39777,-4.103208 3.60722,-4.103208 2.20944,0 3.60722,1.442856 3.60722,4.103208 v 3.471945 h 3.33664 v -3.246464 c 0,-4.734521 -2.525,-7.530073 -7.03406,-7.530073 -4.50896,0 -7.03405,2.795552 -7.03405,7.530073 v 17.404768 c 0,4.734455 2.57016,7.530071 7.03405,7.530071 z m 32.04522,-0.450912 v -3.201384 h -9.42387 V 54.80851 h 7.66534 v -3.201391 h -7.66534 V 41.326574 h 9.42387 v -3.201383 h -12.94089 v 31.563087 z m 14.86582,0 V 44.031935 l 7.98098,25.656343 h 3.65233 V 38.125191 h -3.20148 v 22.545047 l -7.12424,-22.545047 h -4.50898 v 31.563087 z m 32.2256,0 V 41.326574 h 5.5911 V 38.125191 H 208.7815 v 3.201383 h 5.59112 v 28.361704 z"
     style="fill:#e94f36;fill-rule:evenodd;stroke-width:0.308757"
     id="path6" />
  <defs
     id="defs19">
    <radialGradient
       id="grad1"
       cx="709.76709"
       cy="260.69269"
       r="48.406693"
       gradientTransform="matrix(0.25299893,0,0,0.37680512,-107.17341,-42.238255)"
       fx="709.76709"
       fy="260.69269"
       gradientUnits="userSpaceOnUse">
      <stop
         offset="0%"
         stop-color="#ffffff"
         stop-opacity="1.0000"
         id="stop14" />
      <stop
         offset="100%"
         stop-color="#e94f36"
         stop-opacity="1.0000"
         id="stop16" />
    </radialGradient>
  </defs>
  <path
     d="m 73.628123,65.11203 -7.35464,-15.983583 4.8922,-2.256313 7.35464,15.983616 z"
     style="fill:url(#grad1);stroke-width:0.308757"
     id="path21" />
  <path
     d="M 66.364531,49.326391 55.888884,26.560207 34.964347,73.099774 90.493051,42.693535 93.065555,47.417062 23.480844,85.520133 55.835988,13.557063 71.256739,47.070087 Z m 16.765727,36.435871 -9.580191,-20.820144 4.892176,-2.256312 10.511592,23.076456 z"
     style="fill:#e94f36;fill-rule:evenodd;stroke-width:0.308757"
     id="path23" />
</svg>
